# ProBuilder 5.0.7
# https://unity3d.com/unity/features/worldbuilding/probuilder
# 12/06/2023 8:32:18 AM

mtllib ./ClosedShutter.mtl
o ClosedShutter

g ClosedShutter
v 3 0 0.25
v 3 0 0
v 3 3 0.25
v 3 3 0
v 0 0 0
v 0 3 0
v 0 0 0.25
v 0 3 0.25

vt 0.25 0
vt 0 0
vt 0.25 3
vt 0 3
vt 3 0
vt 3 3
vt -0.25 0
vt -0.25 3
vt 0 0.25
vt 3 0.25
vt -3 0
vt -3 0.25

vn 1 0 0
vn 0 0 -1
vn -1 0 0
vn 0 1 0
vn 0 -1 0

usemtl RedShutter
f 1/1/1 2/2/1 4/4/1 3/3/1
f 2/5/2 5/2/2 6/4/2 4/6/2
f 5/2/3 7/7/3 8/8/3 6/4/3
f 8/9/4 3/10/4 4/5/4 6/2/4
f 5/2/5 2/11/5 1/12/5 7/9/5

