# ProBuilder 5.0.3
# https://unity3d.com/unity/features/worldbuilding/probuilder
# 17/10/2021 5:44:38 PM

mtllib ./GardenBed.mtl
o GardenBed

g GardenBed
v 0 0 10.0001
v 0.4999504 0 10.0001
v 0 0.5 10.0001
v 0.4999504 0.5 10.0001
v 0.4999504 0 9.5
v 0.5 0 0.5
v 0.4999504 0.5 9.5
v 0.5 0.5 0.5
v 0.5 0 -0.0001001358
v 0 0 -0.0001001358
v 0.5 0.5 -0.0001001358
v 0 0.5 -0.0001001358
v 0 0 0.5
v 0 0 9.5
v 0 0.5 0.5
v 0 0.5 9.5
v 4.000099 0.5 0.5
v 4.000099 0 0.5
v 4.000099 0.5 -0.0001001358
v 4.000099 0 -0.0001001358
v 3.500099 0.5 0.5
v 3.500099 0 0.5
v 3.500099 0.5 -0.0001001358
v 3.500099 0 -0.0001001358
v 3.500099 0.5 10.0001
v 3.500099 0 10.0001
v 4.000099 0.5 10.0001
v 4.000099 0 10.0001
v 3.500099 0.5 9.5
v 3.500099 0 9.5
v 4.000099 0.5 9.5
v 4.000099 0 9.5

vt 0 0
vt -0.4999504 0
vt 0 0.5
vt -0.4999504 0.5
vt 9.499997 0
vt 0.4999973 0
vt 9.499997 0.5
vt 0.4999973 0.5
vt 0.5 0
vt 0.5 0.5
vt -0.5 0
vt -9.5 0
vt -0.5 0.5
vt -9.5 0.5
vt 0 9.5
vt 0.4999504 9.5
vt -0.4999504 9.5
vt -3.500099 0.5
vt -3.500099 0
vt 3.500099 -0.0001001358
vt 3.500099 0.5
vt -4.000099 0.5
vt -4.000099 0
vt 4.000099 -0.0001001358
vt 4.000099 0.5
vt 4.000099 9.5
vt 3.500099 9.5
vt -3.500099 9.5
vt -4.000099 9.5
vt 9.5 0
vt 9.5 0.5
vt 4.000099 10.0001
vt 3.500099 10.0001
vt -3.500099 10.0001
vt -4.000099 10.0001
vt 10.0001 0
vt 10.0001 0.5
vt 0.4999504 10.0001
vt -0.4999504 10.0001
vt 0 10.0001
vt -10.0001 0.5
vt -10.0001 0

vn 0 0 1
vn 1 0 5.510118E-06
vn 0 0 -1
vn -1 0 0
vn 0 1 0
vn 0 -1 0

usemtl RedBricks
f 1/1/1 2/2/1 4/4/1 3/3/1
f 5/5/2 6/6/2 8/8/2 7/7/2
f 9/9/3 10/1/3 12/3/3 11/10/3
f 13/11/4 14/12/4 16/14/4 15/13/4
f 16/15/5 7/16/5 8/10/5 15/3/5
f 13/3/6 6/13/6 5/17/6 14/15/6
f 6/13/6 13/3/6 10/1/6 9/11/6
f 17/10/2 18/9/2 20/1/2 19/3/2
f 13/11/4 15/13/4 12/3/4 10/1/4
f 15/3/5 8/10/5 11/9/5 12/1/5
f 8/13/1 6/11/1 22/19/1 21/18/1
f 11/9/5 8/10/5 21/21/5 23/20/5
f 6/13/6 9/11/6 24/19/6 22/18/6
f 9/9/3 11/10/3 23/21/3 24/20/3
f 25/18/1 26/19/1 28/23/1 27/22/1
f 23/20/5 21/21/5 17/25/5 19/24/5
f 22/18/6 24/19/6 20/23/6 18/22/6
f 24/20/3 23/21/3 19/25/3 20/24/3
f 21/13/4 22/11/4 30/12/4 29/14/4
f 17/25/5 21/21/5 29/27/5 31/26/5
f 22/18/6 18/22/6 32/29/6 30/28/6
f 18/9/2 17/10/2 31/31/2 32/30/2
f 31/26/5 29/27/5 25/33/5 27/32/5
f 30/28/6 32/29/6 28/35/6 26/34/6
f 32/30/2 31/31/2 27/37/2 28/36/2
f 29/21/3 30/20/3 5/6/3 7/8/3
f 25/33/5 29/27/5 7/16/5 4/38/5
f 30/28/6 26/34/6 2/39/6 5/17/6
f 26/19/1 25/18/1 4/4/1 2/2/1
f 14/15/6 5/17/6 2/39/6 1/40/6
f 16/14/4 14/12/4 1/42/4 3/41/4
f 7/16/5 16/15/5 3/40/5 4/38/5

